<?xml version="1.0" encoding="utf-8"?>
<!-- Generator: Adobe Illustrator 17.0.0, SVG Export Plug-In . SVG Version: 6.00 Build 0)  -->
<!DOCTYPE svg PUBLIC "-//W3C//DTD SVG 1.1//EN" "http://www.w3.org/Graphics/SVG/1.1/DTD/svg11.dtd">
<svg version="1.1" xmlns="http://www.w3.org/2000/svg" xmlns:xlink="http://www.w3.org/1999/xlink" x="0px" y="0px" width="286.6px"
	 height="127.098px" viewBox="0 0 286.6 127.098" enable-background="new 0 0 286.6 127.098" xml:space="preserve">
<g id="Capa_2">
</g>
<g id="Capa_1">
	<g>
		<path fill="#5D5D5D" d="M66.025,46.253L58.49,74.056c-0.929,3.392-2.816,6.104-5.664,8.136c-2.849,2.032-6.048,3.048-9.6,3.048
			c-0.896,0-1.792-0.08-2.688-0.24c-2.561-0.415-4.608-1.519-6.144-3.312c-1.536-1.792-2.304-3.968-2.304-6.528
			c0-0.416,0.015-0.832,0.045-1.248h1.251c0,0.353,0,0.705,0,1.056c0,2.272,0.664,4.208,1.991,5.808
			c1.327,1.601,3.095,2.576,5.303,2.928c0.832,0.128,1.68,0.192,2.544,0.192c3.231,0,6.151-0.921,8.758-2.764
			c2.607-1.842,4.327-4.317,5.159-7.426l7.5-27.837L66.025,46.253z"/>
		<path fill="#5D5D5D" d="M87.05,62.968l-4.032,14.928c-0.576,2.177-1.808,3.944-3.696,5.304c-1.889,1.36-3.984,2.04-6.288,2.04
			c-1.76,0-3.4-0.616-4.92-1.848c-1.521-1.231-2.28-2.647-2.28-4.248c0-0.384,0.048-0.751,0.144-1.104l3.551-13.392l1.493-0.011
			l-3.656,13.786c-0.062,0.288-0.092,0.561-0.092,0.816c0,1.217,0.602,2.289,1.806,3.217c1.205,0.929,2.513,1.392,3.926,1.392
			c1.991,0,3.805-0.583,5.443-1.748c1.638-1.166,2.713-2.69,3.228-4.574l3.878-14.546L87.05,62.968z"/>
		<path fill="#5D5D5D" d="M110.281,66.568l-4.848,18.192l-1.49-0.001l2.698-10.125c-3.585,6.334-7.043,9.63-10.373,9.886
			c-1.761,0.128-3.354-0.496-4.778-1.872c-1.425-1.375-2.137-2.944-2.137-4.704c0-0.448,0.048-0.88,0.144-1.296
			c0.896-3.424,2.992-6.512,6.288-9.264c3.295-2.752,6.48-4.128,9.552-4.128c1.536,0,2.832,0.4,3.888,1.2l-1.008,1.008
			c-0.896-0.672-1.968-1.008-3.216-1.008c-2.656,0-5.472,1.304-8.448,3.912c-2.976,2.608-4.865,5.48-5.664,8.616
			c-0.096,0.32-0.144,0.64-0.144,0.96c0,1.376,0.568,2.608,1.704,3.696c1.135,1.088,2.376,1.584,3.72,1.488
			c2.016-0.16,4.111-1.6,6.288-4.32c1.567-2.047,3.056-4.624,4.464-7.728c1.152-2.527,1.728-4.032,1.728-4.512H110.281z"/>
		<path fill="#5D5D5D" d="M129.433,69.592l-4.176,15.648l-1.541-0.001l4.328-16.03c0.062-0.256,0.092-0.512,0.092-0.768
			c0-0.991-0.448-1.872-1.344-2.64c-0.896-0.768-1.904-1.184-3.022-1.249c-2.112-0.096-4.368,1.088-6.766,3.553l-4.65,16.837
			l-1.497,0.01l4.176-15.12h-0.96c0.224-0.607,0.736-1.488,1.536-2.64l0.96-4.224l1.475,0.008l-0.806,3.111
			c2.496-2.047,4.689-3.023,6.578-2.927c1.472,0.064,2.8,0.632,3.985,1.704c1.184,1.072,1.776,2.296,1.776,3.672
			C129.577,68.889,129.529,69.241,129.433,69.592z"/>
		<path fill="#5D5D5D" d="M154.681,68.728c-0.353,5.024-3.345,9.072-8.978,12.143c-3.938,2.177-8.291,3.537-13.059,4.08
			l-2.824,10.466l-1.492-0.001l2.784-10.32c-0.513,0-0.849-0.016-1.008-0.048l0.192-1.345c0.128,0.032,0.513,0.017,1.154-0.048
			l4.901-18.157c-0.225,0.032-0.546,0.104-0.965,0.217c-0.418,0.113-0.74,0.201-0.965,0.265l0.003-1.482
			c0.572-0.159,1.352-0.334,2.339-0.525c0.13-0.447,0.311-1.054,0.541-1.82l1.438,0.012l-0.462,1.529
			c3.292-0.483,5.979-0.725,8.057-0.725C152.187,62.968,154.969,64.888,154.681,68.728z M153.289,68.632
			c0.224-2.912-2.082-4.368-6.917-4.368c-2.21,0-5.044,0.319-8.502,0.957l-4.886,18.291c4.608-0.64,8.672-1.92,12.193-3.84
			C150.264,76.856,152.968,73.176,153.289,68.632z"/>
		<path fill="#5D5D5D" d="M164.28,62.872l-6,22.368l-1.444,0.012l5.994-22.37L164.28,62.872z M166.75,53.47l-1.39,5.088l-1.539,0
			l1.391-5.088L166.75,53.47z"/>
	</g>
	<polyline fill="none" stroke="#005870" stroke-width="2" stroke-miterlimit="10" points="208.351,89.915 208.516,67.82 
		225.3,67.945 	"/>
	<polyline fill="none" stroke="#005870" stroke-width="2" stroke-miterlimit="10" points="237.586,77.629 237.421,99.724 
		220.637,99.599 	"/>
	<g>
		<g>
			<g>
				<g>
					<g>
						<path fill="#20AEE0" d="M214.707,75.364c-0.081,0.039-0.215,0.182-0.137,0.21l0.279-0.186L214.707,75.364z"/>
						<path fill="#20AEE0" d="M214.591,76.143c0.176-0.045,0.451-0.163,0.637-0.411c-0.292,0.153-0.208,0.048-0.549,0.237
							c-0.078-0.028-0.009-0.166,0.089-0.24c-0.08,0.038-0.024-0.133-0.203-0.021c-0.124,0.244-0.049,0.34,0.192,0.289
							C214.722,76.067,214.64,76.106,214.591,76.143z"/>
						<path fill="#20AEE0" d="M219.073,81.763l-0.002-0.061C219.064,81.726,219.065,81.746,219.073,81.763z"/>
						<path fill="#20AEE0" d="M221.952,85.151c-0.029-0.019-0.063-0.008-0.086,0.012C221.903,85.171,221.936,85.176,221.952,85.151z
							"/>
						<path fill="#20AEE0" d="M222.198,85.956c-0.005-0.019-0.009-0.032-0.014-0.048C222.173,85.941,222.173,85.965,222.198,85.956z
							"/>
						<path fill="#20AEE0" d="M219.073,81.763l0.004,0.158C219.162,81.853,219.095,81.821,219.073,81.763z"/>
						<path fill="#20AEE0" d="M215.849,76.328c-0.029-0.007-0.065-0.002-0.108,0.012c0.024,0.005,0.047,0.012,0.067,0.021
							L215.849,76.328z"/>
						<path fill="#20AEE0" d="M217.548,80.505l-0.025-0.026c-0.034,0.02-0.074,0.043-0.119,0.069L217.548,80.505z"/>
						<path fill="#20AEE0" d="M216.492,79.435c0.014,0.033,0.229-0.149,0.328-0.222c-0.098,0.064-0.156,0.083-0.192,0.076
							C216.588,79.325,216.544,79.371,216.492,79.435z"/>
						<path fill="#20AEE0" d="M215.24,77.348l-0.057-0.005C215.199,77.345,215.22,77.346,215.24,77.348z"/>
						<path fill="#20AEE0" d="M218.233,81.337c-0.029,0.03-0.052,0.059-0.065,0.078C218.194,81.391,218.215,81.365,218.233,81.337z"
							/>
						<path fill="#20AEE0" d="M245.857,63.891c0.015,0.013,0.025,0.022,0.037,0.033C245.879,63.899,245.866,63.884,245.857,63.891z"
							/>
						<polygon fill="#20AEE0" points="248.054,63.51 248.05,63.538 248.164,63.647 						"/>
						<path fill="#20AEE0" d="M222.874,87.22l0-0.008C222.826,87.207,222.844,87.219,222.874,87.22z"/>
						<path fill="#20AEE0" d="M233.246,81.872c-0.284-0.059-0.086-0.39-0.439-0.412C232.903,81.517,233.004,81.898,233.246,81.872z"
							/>
						<path fill="#20AEE0" d="M215.848,76.382c0.016,0.013,0.032,0.026,0.044,0.043C215.879,76.398,215.866,76.385,215.848,76.382z"
							/>
						<path fill="#20AEE0" d="M232.807,81.459l-0.002-0.002l-0.035-0.001C232.785,81.458,232.794,81.459,232.807,81.459z"/>
						<path fill="#20AEE0" d="M226.196,89.887c-0.014-0.059-0.033-0.094-0.051-0.127C226.149,89.798,226.161,89.838,226.196,89.887z
							"/>
						<path fill="#20AEE0" d="M223.846,87.434l0.012,0.069C223.861,87.469,223.855,87.449,223.846,87.434z"/>
						<path fill="#20AEE0" d="M227.375,87.958c0.045-0.019,0.082-0.002,0.101-0.08c-0.014-0.006-0.024-0.009-0.036-0.011
							C227.45,87.914,227.44,87.953,227.375,87.958z"/>
						<path fill="#20AEE0" d="M228.321,86.887c-0.021-0.007-0.039-0.013-0.058-0.02l-0.016,0.041L228.321,86.887z"/>
						<path fill="#20AEE0" d="M243.363,66.91c0.078,0.031,0.155,0.076,0.229,0.123C243.429,66.915,243.501,66.727,243.363,66.91z"/>
						<path fill="#20AEE0" d="M215.733,76.436c0.057-0.042,0.09-0.058,0.115-0.054l-0.04-0.021
							C215.774,76.386,215.745,76.412,215.733,76.436z"/>
						<path fill="#20AEE0" d="M225.978,86.191l0.048,0.009C226,86.188,225.984,86.184,225.978,86.191z"/>
						<path fill="#20AEE0" d="M237.268,73.852l0.006-0.058C237.257,73.803,237.252,73.821,237.268,73.852z"/>
						<path fill="#20AEE0" d="M226.382,85.735c0.098,0.038,0.167,0.048,0.222,0.043c-0.011-0.021-0.018-0.04-0.039-0.066
							L226.382,85.735z"/>
						<path fill="#20AEE0" d="M243.595,67.035l-0.003-0.002L243.595,67.035z"/>
						<path fill="#20AEE0" d="M243.988,65.583c-0.135,0.141,0.21,0.308,0.341,0.48c-0.076,0.244-0.275-0.1-0.469-0.166
							c-0.023,0.174,0.157,0.482,0.074,0.553c-0.051-0.034-0.081-0.033-0.122-0.102c0.118,0.31-0.292,0.351-0.134,0.729
							c-0.033-0.012-0.061-0.027-0.084-0.043c0.158,0.101,0.301,0.222,0.398,0.315c-0.053,0.07,0.067,0.276-0.135,0.141
							c0.041-0.035-0.029-0.103-0.069-0.172l0.018,0.138c-0.315-0.169-0.007-0.173-0.199-0.344
							c-0.034,0.208,0.043,0.555-0.121,0.592c-0.273-0.204,0.127-0.315-0.221-0.379l0.238-0.072
							c-0.508-0.234,0.113-0.071-0.414-0.34c-0.258,0.143-0.077,0.348-0.336,0.49c0.1,0.172,0.223,0.17,0.323,0.342
							c-0.008,0.521-0.845-0.334-0.699,0.184c0.12,0.206,0.422,0.513,0.115,0.517l-0.241-0.307c-0.207,0.177,0.311,0.481-0.07,0.521
							c-0.08-0.138,0.045-0.243-0.016-0.243c-0.348-0.064,0.077,0.241-0.016,0.347l-0.274-0.204c-0.15,0.25-0.176,0.65-0.341,0.929
							c-0.064-0.08-0.108-0.192-0.235-0.205c-0.139,0.413-0.599,0.613-1.006,0.769l0.122,0.305c-0.025,0.024-0.142-0.04-0.159-0.106
							c-0.183,0.039,0.134,0.129,0.172,0.26c-0.042,0.078-0.201-0.027-0.231-0.126c0.01,0.364-0.101,0.923-0.523,0.924l-0.029-0.099
							c-0.234,0.084,0.287,0.583-0.052,0.553l-0.013-0.064c-0.409,0.27-0.555,0.841-1.127,0.817c0.271,0.332-0.452,0.226-0.031,0.64
							c-0.398,0.009-0.425-0.119-0.825,0.036c-0.088,0.058,0.175,0.358,0.138,0.493l-0.233-0.202l0.129,0.342l-0.336-0.176
							l-0.019,0.141c0.045-0.023,0.17,0.017,0.232,0.081c-0.018,0.23-0.459,0.194-0.58,0.093l-0.094,0.499
							c-0.086-0.089-0.07-0.172-0.091-0.268c0.081,0.383-0.271-0.184-0.197,0.167c0.071,0.025,0.127,0.133,0.171,0.178
							c-0.21-0.044-0.372,0.136-0.432,0.322l-0.136-0.167c-0.255,0.206-0.376,0.578-0.62,0.847c0.161-0.032,0.416,0.235,0.372,0.338
							l-0.272-0.184c0.105,0.185,0.166-0.002,0.256,0.267c-0.118,0.077-0.338-0.177-0.365-0.306l-0.025,0.198
							c-0.079-0.057-0.092-0.12-0.178-0.21c0.107,0.185-0.433-0.004-0.235,0.302l-0.079-0.057c-0.243,0.27-0.268,0.467-0.452,0.7
							c0.207,0.191,0.083,0.236,0.195,0.453c-0.211,0.103-0.536,0.137-0.692,0.349c-0.017,0.23,0.143,0.198,0.213,0.371
							c-0.201-0.16-0.356,0.052-0.404-0.172c-0.177,0.263-0.228,0.334-0.336,0.77c0.107,0.037,0.173,0.031,0.222,0.108
							c-0.016,0.082-0.189,0.052-0.274-0.038l-0.007-0.032c-0.008,0.588-1.242,0.275-1.077,0.895l-0.007-0.032l-0.036,0.46
							c-0.146,0.097-0.077-0.204-0.278-0.215c0.056,0.581-0.463,0.429-0.467,0.862c-0.734-0.311-0.556,0.708-1.144,0.644
							l0.146,0.103c0.072,0.182-0.147,0.012-0.221,0.034c0.11,0.085,0.183,0.034,0.219,0.139c-0.336,0.703-1.219,0.984-1.848,1.452
							c-0.222,0.178,0.584,0.73,0.031,0.713l-0.181-0.294c-0.079,0.687-0.778,0.858-0.894,1.496
							c-0.035-0.075-0.109-0.142-0.072-0.181c-0.257-0.072-0.296,0.316-0.15,0.448c-0.074,0.05-0.146-0.103-0.256-0.129
							c-0.184-0.006,0.034,0.424-0.186,0.312c-0.036-0.018-0.036-0.076-0.036-0.105c0.036,0.134-0.259,0.247-0.003,0.376
							c-0.237,0.068-0.172,0.38-0.405,0.395c0.16,0.286-0.348,0.168-0.043,0.484c-0.329-0.311-0.537,0.056-0.358,0.174
							c-0.085-0.11-0.113-0.086-0.227-0.243c-0.006,0.016,0.025,0.108,0.151,0.316c-0.17-0.216-0.119-0.11-0.114,0.02
							c0.013,0.121-0.008,0.252-0.104-0.164c0.005,0.158-0.021,0.326-0.058,0.487c-0.056,0.084-0.137,0.11-0.226,0.1
							c0.121-0.534,0.14,0.085,0.191-0.557c-0.046,0.224-0.266,0.556-0.345,0.311c0.004-0.086,0.117-0.162,0.156-0.233
							c-0.082,0.048-0.126-0.014-0.162-0.058c-0.05-0.059-0.221-0.237-0.411-0.261c0.031-0.028,0.09-0.032,0.139-0.03
							c-0.056-0.039-0.057-0.159-0.202-0.014l0.085,0.01c-0.147,0.28-0.636,0.227-0.76,0.325c0.509-0.315-0.118-0.346,0.55-0.717
							c-0.058-0.006-0.167,0.019-0.261,0.12c-0.015-0.075,0.03-0.145,0.19-0.202c-0.244-0.1-0.347,0.11-0.49-0.052
							c0.074-0.067,0.131-0.061,0.232-0.123c-0.217,0.051-0.434,0.101-0.496-0.09c0.051-0.032,0.094-0.101,0.13-0.06
							c-0.235-0.211-0.742-0.044-0.838-0.424c0.386-0.218,0.025-0.182,0.287-0.449l-0.207-0.061l-0.083,0.178
							c-0.105-0.124-0.403-0.045-0.407-0.23l0.195-0.016l-0.258-0.176l0.013,0.223c-0.253,0.01-0.335,0.333-0.405,0.104
							c0.058,0.007-0.107-0.122-0.002-0.334l0.001,0c-0.142,0.022-0.29,0.046-0.303-0.105c0.067-0.104,0.32-0.262,0.365-0.33
							c-0.283,0.153-0.321-0.221-0.634-0.069c0.08-0.028,0.225-0.16,0.247-0.195l-0.231,0.123c0.009-0.11,0.03-0.145,0.153-0.242
							c-0.119-0.198-0.299,0.374-0.331,0.038c0.029,0.002,0.05-0.031,0.108-0.025c-0.105-0.27-0.471-0.274-0.548-0.54
							c0.227-0.308,0.214,0.097,0.391-0.18c-0.292-0.216-0.832-0.238-1.002-0.552l0.013,0.075c-0.422,0.324,0.018-0.367-0.284-0.326
							c0.058,0.005,0.255-0.158,0.203-0.127c-0.098-0.232-0.424-0.267-0.79-0.418l0.13-0.06c-0.005-0.185-0.198-0.318-0.254-0.47
							c-0.13,0.059-0.173-0.019-0.283,0.154c0.255-0.868-0.907-0.369-0.711-1.11c0.035,0.035,0.167,0.006,0.141-0.023l-0.33-0.173
							c-0.151,0.177-0.072,0.129-0.154,0.305c-0.131,0.06-0.276,0.059-0.335-0.005c0.22,0.012,0.272-0.253,0.32-0.39
							c-0.044,0.056-0.118,0.092-0.167,0.145c0.178-0.414-0.363,0.293-0.329-0.079l0.098-0.073
							c-0.109-0.027-0.286,0.018-0.329-0.079c0.168-0.212,0.159-0.011,0.325-0.156c-0.108-0.094-0.562,0.137-0.453-0.138
							c0.096-0.006,0.155,0.057,0.251,0.051c0.136-0.316,0.066-0.273,0.032-0.384l0.002,0.012l-0.058-0.273l-0.021,0.103
							c-0.633,0.342-0.339-0.18-0.837-0.046c0.475-0.122,0.21-0.141,0.444-0.333c0.02-0.102,0.027-0.234,0.107-0.273
							c-0.256,0.083,0.013-0.269-0.357-0.144c0.067-0.071-0.075-0.095,0.122-0.243c-0.156-0.056-0.101,0.141-0.199,0.214
							c-0.399,0.059-0.064-0.665-0.621-0.595c-0.329-0.079-0.606,0.106-0.903,0.025c0.055-0.17,0.31-0.188,0.31-0.188
							c0.009-0.202-0.083-0.262-0.256-0.285c0.081-0.038,0.115-0.107,0.168-0.211c-0.091-0.062-0.31,0.188-0.3-0.014
							c0.096-0.056,0.245-0.151,0.361-0.187c-0.152-0.032-0.37-0.001-0.524-0.037c0.101-0.141,0.243-0.117,0.356-0.158
							c-0.156-0.056-0.372-0.176-0.6-0.027l-0.007,0.135c-0.046-0.031,0.151-0.177,0.214-0.181c0.241-0.05,0.055,0.197-0.012,0.269
							l-0.109-0.026c-0.355,0.458,0.322,0.213,0.425,0.374l-0.359,0.224l0.384-0.092c-0.052,0.104-0.204,0.282-0.312,0.256
							c-0.06,0.238,0.19-0.013,0.1,0.228c-0.018,0.034-0.036,0.043-0.056,0.045l0.18,0.013c-0.082,0.04-0.201,0.215-0.212,0.115
							c-0.016,0.336,0.488,0.068,0.316,0.347l-0.032,0.003c0.326,0.146,0.246-0.184,0.676-0.246l-0.442,0.632l0.246-0.183
							c0.015,0.032,0.043,0.097-0.055,0.171c0.239-0.049,0.083-0.106,0.278-0.186c-0.094,0.308,0.4,0.242,0.067,0.598
							c0.21-0.115,0.026-0.236,0.263-0.218c-0.351,0.391,0.202,0.087,0.126,0.359c-0.229,0.15-0.22-0.051-0.296,0.222
							c0.396-0.244,0.123,0.28,0.272,0.313c0.271-0.242,0.296,0.098,0.528,0.17c-0.099,0.073,0.122,0.426,0.158,0.659l-0.049,0.037
							c0.296-0.221,0.382-0.026,0.537,0.031c-0.166,0.145-0.247,0.184-0.373,0.192l0.095,0.1c0.109-0.056,0.183-0.066,0.275-0.029
							l-0.225,0.16c0.136,0.125,0.489,0.053,0.514,0.351c0.197-0.164,0.396-0.622,0.692-0.554c-0.095,0.101-0.263,0.268-0.349,0.258
							c0.028,0.004,0.136-0.022,0.122,0.05l-0.239,0.084c-0.002,0.149,0.181-0.091,0.224-0.012c-0.146,0.133-0.06,0.142-0.184,0.24
							c-0.029-0.003,0.009-0.111-0.07-0.082c0.04,0.095,0.033,0.261-0.05,0.391c0.077-0.082,0.195-0.18,0.263-0.145
							c0.135,0.125-0.132,0.207-0.134,0.355c0.131-0.06,0.106,0.122,0.325-0.076c0.035,0.041-0.059,0.141-0.104,0.211
							c0.16-0.018,0.329,0.301,0.487,0.01l-0.001-0.032c0.008,0.001,0.012,0.002,0.02,0.003l-0.001-0.001l0.001,0.001
							c0.427,0.03,0.317,0.59,0.619,0.732l-0.073,0.066c0.208,0.059,0.328,0.257,0.574,0.21c0.037,0.04-0.045,0.217-0.147,0.28
							c0.15,0.054,0.243-0.01,0.261,0.25c-0.223,0.012-0.079,0.139-0.191-0.021c0.062,0.193-0.026,0.331,0.306,0.292
							c-0.231,0.122-0.14,0.317-0.026,0.33l0.046-0.217c0.094,0.047,0.135,0.125,0.179,0.204l-0.277,0.191
							c-0.043,0.551,0.966,0.031,0.661,0.701c0.238-0.085-0.018-0.261,0.242-0.38c0.084,0.157-0.145,0.614-0.109,0.654
							c0.025,0.299,0.507-0.167,0.582,0.1c0.066-0.104,0.278-0.34,0.486-0.28c0.085,0.157-0.222,0.494-0.366,0.478
							c-0.035-0.024-0.021-0.064,0.009-0.09c-0.07-0.012-0.157-0.031-0.205,0.106l0.102-0.064c-0.031,0.145,0.14,0.311-0.041,0.402
							c0.172,0.019,0.181-0.091,0.161-0.204c0.024,0.28,0.231,0.258,0.301,0.504c0.023-0.071,0.103-0.19,0.127-0.163
							c0.119,0.346,0.265-0.044,0.457,0.087c-0.046,0.217-0.349,0.259-0.082,0.324c0.005,0.186-0.211,0.235-0.32,0.26
							c0.309-0.002,0.153,0.388,0.203,0.504l-0.145-0.016c0.086,0.01,0.121,0.05,0.158,0.091l0.132-0.207
							c0.013,0.075,0.049,0.116-0.024,0.182c0.159-0.057,0.256-0.305,0.501-0.352c-0.03,0.145,0.272,0.104,0.061,0.34
							c-0.104-0.271-0.212,0.236-0.405,0.103c0.058,0.007,0.093,0.047,0.106,0.123c-0.019,0.031-0.054,0.037-0.079,0.037
							c-0.032,0.381,0.342-0.154,0.518,0.047c-0.154,0.095-0.205,0.274-0.148,0.28c-0.07-0.082,0.183-0.239,0.35-0.258
							c0.015,0.22,0.202,0.067,0.251,0.144l-0.022-0.119c0.154-0.095,0.195-0.016,0.317,0.034c-0.095,0.101-0.144-0.015-0.159,0.057
							c0.16-0.057,0.151,0.053,0.138,0.176c-0.01,0.127,0.027,0.324,0.186,0.341c0.014,0.192-0.203,0.272-0.166,0.433
							c0.366,0.058,0.142,0.512,0.503,0.623c0.023-0.327,0.001-0.264,0.255-0.333l-0.461-0.252c0.01,0.01,0.416-0.061,0.406-0.071
							c-0.099-0.112-0.297-0.101-0.343-0.21c0.216-0.053,0.165-0.021,0.227-0.245c-0.042,0.483,0.349,0.071,0.391,0.473l-0.21,0.643
							c0.102,0.304,0.267,0.372,0.42,0.405c0.158,0.038,0.301,0.04,0.474,0.337l-0.108-0.268c0.038-0.178,0.107-0.064,0.185,0.043
							c0.043-0.036,0.089-0.08,0.124-0.172c0.003,0.295,0.076,0.32,0.142,0.431c-0.026-0.191,0.278-0.293,0.218-0.821
							c-0.005,0.005,0.211,0.154,0.216,0.149c0.335-0.218,0.105-0.967,0.342-1.133c0.037,0.282,0.227,0.278,0.121,0.63
							c0.092-0.101,0.195-0.163,0.124-0.288c0.128,0.042,0.083-0.495,0.274-0.428c-0.021-0.107-0.151-0.272-0.056-0.355
							c0.038,0.017,0.07,0.068,0.07,0.068c-0.061-0.078,0.024-0.227-0.202-0.302c0.638,0.209,0.461-0.588,1.011-0.411
							c0.076-0.185,0.179-0.398,0.282-0.536c0.037,0.047,0.073,0.066,0.036,0.076c0.294-0.055-0.328-0.485,0.004-0.55
							c0.33,0.109,0.034,0.222,0.182,0.237c0.511,0.403,0.149-0.302,0.553-0.186l0,0.058c0.257,0.043,0.04-0.416,0.225-0.555
							c0,0,0.036,0.046,0.073,0.066c-0.145-0.336-0.033-0.628,0.042-0.852c0.145,0.219,0.035,0.163,0.256,0.304
							c0.037-0.097-0.329-0.254-0.254-0.447c0.146,0.045,0.33,0.02,0.549,0.189l-0.111,0.147c0.329,0.166,0.149-0.186,0.259-0.218
							l0.108,0.113c0.149-0.244-0.143-0.508,0.079-0.716l-0.109-0.055c-0.182-0.382,0.256,0.041,0.149-0.274l0.329,0.224
							c0.001-0.145-0.032-0.539,0.042-0.735c0.146,0.277,0.106,0.548,0.142,0.769c0.074-0.079,0.222-0.295,0.114-0.466
							c0,0.058,0.036,0.163-0.039,0.155c-0.144-0.305-0.143-0.537,0.005-0.694c0.548,0.536,0.517-0.293,1.066-0.016
							c0.041-0.473,0.592-0.486,0.853-0.849c-0.55-0.277,0.073-0.108-0.402-0.493c0.039-0.103,0.073-0.126,0.109-0.107l0.481,0.007
							c0.183,0.062,0.036,0.163,0.145,0.247c0.185-0.139,0.257,0.101,0.478,0.096c-0.184-0.122-0.182-0.267-0.034-0.308
							l-0.332-0.051c-0.034-0.453,0.566,0.135,0.536-0.317l0.077,0.203c0.024-0.198,0.404-0.45,0.142-0.896
							c0.072,0.025,0.223,0.107,0.208,0.191c0.315-0.244,0.187-0.999,0.615-1.026l0.092,0.121c0.016-0.083-0.126-0.281,0.047-0.25
							c0.043,0.045,0.092,0.121,0.121,0.101c-0.013-0.063-0.067-0.319,0.062-0.334l0.071,0.173c0.4-0.156,0.082-0.71,0.218-1.018
							c0.329,0.293,0.635,0.162,0.788,0.097l0.043,0.045c0.336-0.297,0.228-0.807,0.371-1.23c0.527,0.125,0.724-0.515,1.197-0.645
							c-0.101-0.006-0.25-0.235-0.235-0.319c0.131-0.013-0.052-0.402,0.24-0.123l-0.029,0.021c0.345,0.208,0.397-0.01,0.508-0.119
							l-0.378-0.369c0.843,0.206,0.492-0.981,1.153-0.69c-0.034-0.161,0.047-0.25,0.013-0.41l0.209,0.192
							c0.234-0.155,0.35-0.232,0.521-0.527l0.106,0.185c0.139-0.129-0.453-0.72-0.35-0.861l0.351,0.241
							c0.213-0.251,0.712-0.254,0.641-0.752c0.043,0.045,0.128,0.133,0.105,0.185c0.111-0.109,0.611-0.259,0.14-0.601
							c0.285,0.248,0.253-0.23,0.246-0.473l0.19,0.205c-0.167-0.348-0.237-0.417-0.172-0.639c0.06-0.013,0.196,0.115,0.099,0.117
							c0.219-0.027-0.112-0.271,0.132-0.323l0.084,0.174c0.129-0.113,0.048-0.166-0.045-0.374c-0.013-0.154,0.267-0.195,0.472-0.047
							c-0.1-0.119-0.192-0.325-0.071-0.352c0.08,0.053,0.1,0.12,0.11,0.152c0.331-0.087,0.038-0.532,0.373-0.497
							c0.072,0.058,0.115,0.079,0.146,0.086c-0.155,0.165-0.287,0.291-0.291,0.265c0.192,0.17,0.347,0.064,0.516,0.408
							c-0.048-0.238-0.197-0.705,0.012-0.758c0.024,0.01,0.048,0.02,0.082,0.041l0.009,0.033c0.046-0.014,0.053-0.057,0.044-0.112
							c0.069-0.015,0.117-0.021,0.156-0.059c0.173,0.125,0.225-0.081,0.293-0.142c-0.215-0.181-0.103-0.24-0.35-0.31
							c0.025,0.002,0.014,0.035-0.018,0.088c-0.003,0.016-0.01,0.031-0.004,0.048l-0.014-0.021
							c-0.036,0.048-0.083,0.111-0.136,0.182c-0.059-0.149-0.099-0.284,0.084-0.256c-0.101-0.157-0.205-0.319-0.255-0.396
							c0.376,0.167,0.694,0.127,0.897,0.263c0.066-0.313,0.356-0.559,0.077-1.04c0.002-0.104,0.174,0.032,0.255,0.065
							c0.009,0.069-0.033,0.105,0.008,0.173c0.003-0.208,0.271-0.386,0.02-0.658c0.257-0.039,0.18,0.309,0.316,0.064l0.06,0.102
							c0.798-0.012-0.124-1.28,0.838-1.225c-0.062,0-0.092,0.001-0.144-0.033c0.701-0.288,0.696-1.258,1.537-1.41
							c0.206-0.072,0.044-0.244-0.013-0.45l0.253,0.169l-0.129-0.38c-0.004-0.381,0.879,0.125,0.755-0.462l-0.183-0.1
							c0.114-0.071,0.18-0.384,0.341-0.213c-0.019-0.034-0.13-0.172-0.018-0.139l0.121,0.102l0.007-0.416
							c0.248-0.107,0.444,0.445,0.704,0.198c0.042-0.14-0.094-0.588-0.206-0.621c-0.041,0.035-0.164,0.037-0.286-0.065l0.019-0.145
							c-0.334-0.325-0.629-0.711-1.07-0.704l0.075,0.344l-0.213-0.1l0.105-0.14c-0.225-0.067-0.126,0.105-0.076,0.243
							c-0.101-0.067-0.183-0.101-0.244-0.1l0.198,0.448c-0.153-0.102-0.21-0.308-0.376-0.273c0.091,0.208,0.366,0.202,0.363,0.411
							c-0.224-0.066-0.334-0.202-0.276,0.005c-0.101-0.067-0.141-0.136-0.15-0.206c0.039,0.173-0.137,0.246,0.013,0.45
							c-0.264-0.096-0.181,0.307-0.505,0.007c0.057,0.094,0.138,0.366,0.088,0.45c-0.279-0.48-0.26,0.246-0.653-0.163
							c0.27,0.411-0.151,0.488-0.105,0.833c-0.02-0.034-0.06-0.104-0.029-0.103c-0.115,0.07-0.246,0.003-0.368,0.006
							c0.282,0.272,0.217,0.481,0.326,0.722c-0.387-0.133-0.281-0.377-0.586-0.58c0.243,0.205,0.056,0.415,0.289,0.55
							c-0.255-0.065-0.154,0.002-0.438-0.166c0.353,0.341-0.012,0.139,0.147,0.413c-0.296-0.03-0.373-0.271-0.389-0.029
							C244.005,65.826,243.988,65.583,243.988,65.583z M241.603,69.553l-0.004-0.004c0.021-0.034,0.039-0.062,0.05-0.081
							C241.64,69.486,241.627,69.51,241.603,69.553z M241.353,69.843c0.039-0.028,0.079-0.07,0.118-0.117
							c0.082,0.054,0.147,0.131,0.117,0.157C241.554,69.824,241.452,69.854,241.353,69.843z M243.348,70.528
							c-0.01,0.072-0.065,0.05-0.114,0.018c0.015-0.025,0.03-0.056,0.045-0.102l-0.021-0.028
							C243.294,70.457,243.328,70.495,243.348,70.528z"/>
						<path fill="#20AEE0" d="M243.144,70.202c0.001-0.011-0.004-0.022,0.001-0.032c-0.027-0.006-0.051-0.011-0.071-0.015
							l0.052,0.074L243.144,70.202z"/>
						<path fill="#20AEE0" d="M219.07,81.692l0.001,0.01c0.004-0.012,0.008-0.025,0.018-0.04
							C219.081,81.675,219.076,81.682,219.07,81.692z"/>
						<polygon fill="#20AEE0" points="237.447,73.441 237.501,73.487 237.476,73.421 						"/>
						<path fill="#20AEE0" d="M218.351,79.489c0.015-0.02,0.029-0.043,0.034-0.069C218.372,79.433,218.361,79.459,218.351,79.489z"
							/>
						<path fill="#20AEE0" d="M217.78,78.777l-0.014-0.162C217.762,78.694,217.769,78.742,217.78,78.777z"/>
						<path fill="#20AEE0" d="M217.408,78.168c-0.042,0.027-0.071,0.05-0.098,0.072l-0.001,0.002L217.408,78.168z"/>
						<path fill="#20AEE0" d="M225.195,86.124c0.007,0.006,0.016,0.01,0.028,0.011C225.306,86.144,225.261,86.127,225.195,86.124z"
							/>
						<path fill="#20AEE0" d="M222.467,84.135c0.061-0.009,0.122-0.017,0.17-0.012C222.613,84.065,222.586,84.028,222.467,84.135z"
							/>
						<polygon fill="#20AEE0" points="225.973,86.189 225.976,86.193 225.978,86.191 						"/>
						<path fill="#20AEE0" d="M222.738,84.239c0.001-0.081-0.041-0.109-0.101-0.117C222.656,84.171,222.674,84.233,222.738,84.239z"
							/>
						<path fill="#20AEE0" d="M215.444,75.852l-0.014-0.033c-0.013,0.013-0.026,0.022-0.036,0.028L215.444,75.852z"/>
						<path fill="#20AEE0" d="M215.394,75.847l-0.05-0.005C215.356,75.854,215.368,75.864,215.394,75.847z"/>
						<path fill="#20AEE0" d="M215.239,75.832l0.105,0.01C215.327,75.821,215.31,75.791,215.239,75.832z"/>
						<path fill="#20AEE0" d="M215.977,76.621l0.082-0.061C216.04,76.57,216.013,76.589,215.977,76.621z"/>
						<path fill="#20AEE0" d="M216.19,76.808c-0.028-0.065,0.046-0.271-0.065-0.297l-0.066,0.049
							C216.201,76.489,216.02,76.878,216.19,76.808z"/>
						<path fill="#20AEE0" d="M216.06,78.526l-0.1-0.229c-0.052,0.104-0.122,0.243-0.214,0.182
							C215.71,78.917,215.883,78.269,216.06,78.526z"/>
						<path fill="#20AEE0" d="M216.441,79.17c-0.123-0.059-0.115,0.108-0.165,0.145C216.403,79.307,216.435,79.305,216.441,79.17z"
							/>
						<path fill="#20AEE0" d="M220.025,83.057l-0.197,0.164C219.921,83.268,219.901,83.155,220.025,83.057z"/>
						<polygon fill="#20AEE0" points="221.682,82.904 221.734,82.726 221.531,82.852 						"/>
						<polygon fill="#20AEE0" points="220.747,84.578 220.691,84.571 220.87,84.628 						"/>
						<path fill="#20AEE0" d="M228.355,87.224l-0.255-0.187C228.099,87.124,228.354,87.369,228.355,87.224z"/>
						<path fill="#20AEE0" d="M230.657,84.142c0.146,0.073,0.293,0.06,0.221-0.093C230.805,84.099,230.656,84.082,230.657,84.142z"
							/>
						<polygon fill="#20AEE0" points="238.664,75.877 238.692,76.005 238.722,75.838 						"/>
					</g>
				</g>
			</g>
		</g>
	</g>
	<g>
		<path fill="#5D5D5D" d="M212.904,51.736L191.496,91h-1.2l1.926-34.52l-18.636,35.596l-3.306-40.82h1.44l2.928,35.712
			l18.048-34.272h1.2l-1.961,34.39l19.342-35.374L212.904,51.736z"/>
	</g>
</g>
</svg>
